<svg xmlns="http://www.w3.org/2000/svg" xml:space="preserve" width="512" height="512" style="enable-background:new 0 0 512 512" viewBox="0 0 48 48">
  <path d="M28.31 5.73a6.25 6.25 0 0 0-8.62 0L4.93 19.82A3 3 0 0 0 7 25h2v14a5 5 0 0 0 5 5h20a5 5 0 0 0 5-5V25h2a3 3 0 0 0 2.07-5.18zM29 42H19V32a1 1 0 0 1 1-1h8a1 1 0 0 1 1 1zm12.93-19.63A1 1 0 0 1 41 23h-3a1 1 0 0 0-1 1v15a3 3 0 0 1-3 3h-3V32a3 3 0 0 0-3-3h-8a3 3 0 0 0-3 3v10h-3a3 3 0 0 1-3-3V24a1 1 0 0 0-1-1H7a1 1 0 0 1-.69-1.73L21.07 7.18a4.23 4.23 0 0 1 5.86 0l14.76 14.09a1 1 0 0 1 .24 1.1z" data-original="#000000"/>
</svg>
