<svg xml:space="preserve" viewBox="0 0 64 64">
  <g data-name="Layer 25">
    <rect width="57.5" height="57.5" x="3.25" y="3.25" fill="#33d9b2" data-original="#33d9b2" rx="12.75"/>
    <g fill="#fff">
      <path d="M48.25 17.37a.74.74 0 0 0-.74-.64h-6a.75.75 0 0 0 0 1.5h5.38l2.51 17H38.55a.23.23 0 0 0-.11 0 .75.75 0 0 0-.64.73 5.8 5.8 0 1 1-11.6 0 .74.74 0 0 0-.65-.73.19.19 0 0 0-.1 0H14.62l2.51-17h5.38a.75.75 0 0 0 0-1.5h-6a.74.74 0 0 0-.74.64S13 36 13 36v12.5a.76.76 0 0 0 .75.75h36.5a.76.76 0 0 0 .75-.75V36l-2.75-18.63zm1.25 30.38h-35v-11h10.24a7.3 7.3 0 0 0 14.52 0H49.5z" data-original="#ffffff"/>
      <path d="M31.47 32.84a.74.74 0 0 0 1.06 0l7.14-7.14a3.49 3.49 0 0 0-2.46-6 3.5 3.5 0 0 0-1.72.45v-5.41a3.49 3.49 0 0 0-7 0v5.45a3.5 3.5 0 0 0-1.72-.45 3.49 3.49 0 0 0-2.46 6zm-6.09-11a2 2 0 0 1 1.41-.59 2 2 0 0 1 1.41.58l.53.54a.75.75 0 0 0 1.27-.54v-7.09a2 2 0 0 1 4 0v7.09a.75.75 0 0 0 1.28.53l.53-.54a2 2 0 0 1 1.41-.58 2 2 0 0 1 1.4 3.4L32 31.25l-6.61-6.61a2 2 0 0 1-.01-2.81z" data-original="#ffffff"/>
    </g>
  </g>
</svg>
