<svg xmlns="http://www.w3.org/2000/svg" version="1.1" xmlns:xlink="http://www.w3.org/1999/xlink" width="512" height="512" x="0" y="0" viewBox="0 0 24 24" style="enable-background:new 0 0 512 512" xml:space="preserve">
  <g>
    <path d="M18.5 24h-14A2.503 2.503 0 0 1 2 21.5v-17C2 3.122 3.122 2 4.5 2h14C19.878 2 21 3.122 21 4.5v17c0 1.378-1.122 2.5-2.5 2.5zM4.5 3C3.673 3 3 3.673 3 4.5v17c0 .827.673 1.5 1.5 1.5h14c.827 0 1.5-.673 1.5-1.5v-17c0-.827-.673-1.5-1.5-1.5z" fill="#000000" opacity="1" data-original="#000000"/>
    <path d="M6.5 5a.5.5 0 0 1-.5-.5v-4a.5.5 0 0 1 1 0v4a.5.5 0 0 1-.5.5zM12 5a.5.5 0 0 1-.5-.5v-4a.5.5 0 0 1 1 0v4a.5.5 0 0 1-.5.5zM16.5 5a.5.5 0 0 1-.5-.5v-4a.5.5 0 0 1 1 0v4a.5.5 0 0 1-.5.5zM17.5 18h-11a.5.5 0 0 1 0-1h11a.5.5 0 0 1 0 1zM17.5 14h-11a.5.5 0 0 1 0-1h11a.5.5 0 0 1 0 1zM12.5 10h-6a.5.5 0 0 1 0-1h6a.5.5 0 0 1 0 1z" fill="#000000" opacity="1" data-original="#000000"/>
  </g>
</svg>
