<svg xmlns="http://www.w3.org/2000/svg" xml:space="preserve" width="512" height="512" style="enable-background:new 0 0 512 512" viewBox="0 0 48 48"><path d="M5 33a2.8 2.8 0 0 0 1.48 2.5L20.09 43a8.07 8.07 0 0 0 7.82 0l13.61-7.5a2.85 2.85 0 0 0 0-5l-3.63-2 3.63-2a2.85 2.85 0 0 0 0-5l-3.63-2 3.63-2a2.85 2.85 0 0 0 0-5L27.91 5a8.06 8.06 0 0 0-7.82 0L6.48 12.5a2.85 2.85 0 0 0 0 5l3.63 2-3.63 2a2.85 2.85 0 0 0 0 5l3.63 2-3.63 2A2.8 2.8 0 0 0 5 33zm2.44-17.25a.86.86 0 0 1 0-1.5l13.62-7.49a6.08 6.08 0 0 1 5.88 0l13.62 7.49a.86.86 0 0 1 0 1.5l-13.62 7.49a6.08 6.08 0 0 1-5.88 0zm0 9a.86.86 0 0 1 0-1.5l4.74-2.61L20.09 25a8.07 8.07 0 0 0 7.82 0l7.91-4.35 4.74 2.61a.86.86 0 0 1 0 1.5l-13.62 7.48a6.08 6.08 0 0 1-5.88 0zm0 7.5 4.74-2.61L20.09 34a8.07 8.07 0 0 0 7.82 0l7.91-4.35 4.74 2.61a.86.86 0 0 1 0 1.5l-13.62 7.48a6.08 6.08 0 0 1-5.88 0L7.44 33.75a.86.86 0 0 1 0-1.5z" data-original="#000000"/></svg>