<svg xmlns="http://www.w3.org/2000/svg" xml:space="preserve" width="512" height="512" style="enable-background:new 0 0 512 512" viewBox="0 0 48 48">
  <path d="M40 43a4 4 0 0 0 4-4V10a4 4 0 0 0-4-4H8a4 4 0 0 0-4 4v29a4 4 0 0 0 4 4zM6 39V10a2 2 0 0 1 2-2h32a2 2 0 0 1 2 2v29a2 2 0 0 1-2 2H8a2 2 0 0 1-2-2z" data-original="#000000"/>
  <path d="M12 23v14a1 1 0 0 0 2 0V23a3 3 0 0 0 3-3v-2a3 3 0 0 0-3-3v-3a1 1 0 0 0-2 0v3a3 3 0 0 0-3 3v2a3 3 0 0 0 3 3zm-1-5a1 1 0 0 1 1-1h2a1 1 0 0 1 1 1v2a1 1 0 0 1-1 1h-2a1 1 0 0 1-1-1zm12 10v9a1 1 0 0 0 2 0v-9a3 3 0 0 0 3-3v-2a3 3 0 0 0-3-3v-8a1 1 0 0 0-2 0v8a3 3 0 0 0-3 3v2a3 3 0 0 0 3 3zm-1-5a1 1 0 0 1 1-1h2a1 1 0 0 1 1 1v2a1 1 0 0 1-1 1h-2a1 1 0 0 1-1-1zm12 11v3a1 1 0 0 0 2 0v-3a3 3 0 0 0 3-3v-2a3 3 0 0 0-3-3V12a1 1 0 0 0-2 0v14a3 3 0 0 0-3 3v2a3 3 0 0 0 3 3zm-1-5a1 1 0 0 1 1-1h2a1 1 0 0 1 1 1v2a1 1 0 0 1-1 1h-2a1 1 0 0 1-1-1z" data-original="#000000"/>
</svg>
