<?xml version="1.0" standalone="no"?><svg xmlns="http://www.w3.org/2000/svg" viewBox="0 0 1440 320"><path fill="#ff5500" fill-opacity="0.8" d="M0,96L26.7,128C53.3,160,107,224,160,218.7C213.3,213,267,139,320,133.3C373.3,128,427,192,480,192C533.3,192,587,128,640,106.7C693.3,85,747,107,800,144C853.3,181,907,235,960,218.7C1013.3,203,1067,117,1120,117.3C1173.3,117,1227,203,1280,218.7C1333.3,235,1387,181,1413,154.7L1440,128L1440,320L1413.3,320C1386.7,320,1333,320,1280,320C1226.7,320,1173,320,1120,320C1066.7,320,1013,320,960,320C906.7,320,853,320,800,320C746.7,320,693,320,640,320C586.7,320,533,320,480,320C426.7,320,373,320,320,320C266.7,320,213,320,160,320C106.7,320,53,320,27,320L0,320Z"></path></svg>