<?xml version="1.0" standalone="no"?><svg xmlns="http://www.w3.org/2000/svg" viewBox="0 0 1440 320"><path fill="#0099ff" fill-opacity="0.5" d="M0,160L26.7,144C53.3,128,107,96,160,80C213.3,64,267,64,320,53.3C373.3,43,427,21,480,64C533.3,107,587,213,640,240C693.3,267,747,213,800,192C853.3,171,907,181,960,160C1013.3,139,1067,85,1120,80C1173.3,75,1227,117,1280,154.7C1333.3,192,1387,224,1413,240L1440,256L1440,320L1413.3,320C1386.7,320,1333,320,1280,320C1226.7,320,1173,320,1120,320C1066.7,320,1013,320,960,320C906.7,320,853,320,800,320C746.7,320,693,320,640,320C586.7,320,533,320,480,320C426.7,320,373,320,320,320C266.7,320,213,320,160,320C106.7,320,53,320,27,320L0,320Z"></path></svg>